<?xml version="1.0" standalone="no"?>
<!DOCTYPE svg PUBLIC "-//W3C//DTD SVG 20010904//EN"
 "http://www.w3.org/TR/2001/REC-SVG-20010904/DTD/svg10.dtd">
<svg version="1.0" xmlns="http://www.w3.org/2000/svg"
 width="819.000000pt" height="680.000000pt" viewBox="0 0 819.000000 680.000000"
 preserveAspectRatio="xMidYMid meet">

<g transform="translate(0.000000,680.000000) scale(0.100000,-0.100000)"
fill="#000000" stroke="none">
<path d="M5306 6374 c-185 -37 -333 -94 -561 -217 -315 -169 -366 -186 -615
-197 -102 -5 -203 -14 -225 -20 -46 -14 -80 -42 -102 -85 l-15 -30 36 35 c36
34 39 35 117 34 43 -1 91 -5 106 -9 25 -6 24 -7 -25 -30 -29 -13 -52 -26 -52
-28 0 -2 19 -1 43 4 61 12 217 11 217 -1 0 -5 -15 -10 -32 -11 -18 0 -55 -6
-83 -13 l-50 -12 86 -12 c48 -7 111 -21 140 -32 l54 -20 -55 5 c-30 3 -91 10
-136 15 -98 10 -209 -2 -263 -29 -65 -34 -102 -102 -82 -151 10 -25 10 -25 10
6 2 71 89 113 196 95 49 -9 281 -84 292 -95 2 -2 -10 -21 -26 -43 -38 -53
-100 -78 -174 -70 -28 3 -104 22 -167 42 -213 69 -377 59 -475 -27 -73 -65
-105 -193 -74 -299 10 -33 9 -43 -10 -81 -48 -92 -171 -188 -242 -188 -15 0
-43 7 -64 16 -49 20 -52 14 -9 -15 66 -45 156 -37 301 29 35 16 63 27 63 25 0
-3 -18 -34 -40 -70 -22 -36 -40 -68 -40 -71 0 -3 34 26 77 65 42 40 96 84 120
98 50 29 57 28 148 -30 l50 -32 -73 -7 c-90 -8 -173 -47 -216 -100 -36 -46
-46 -124 -22 -178 l15 -35 1 69 c0 65 2 70 38 106 76 76 185 74 418 -8 195
-69 276 -86 388 -79 50 2 99 8 109 12 26 11 22 -4 -31 -118 -98 -213 -178
-320 -300 -400 -190 -126 -365 -177 -792 -231 -413 -53 -601 -112 -765 -241
-205 -159 -372 -226 -615 -244 -52 -4 -88 -10 -80 -13 8 -2 40 -13 70 -22 101
-33 169 -84 338 -253 245 -247 312 -282 544 -290 93 -4 186 0 293 12 181 20
263 17 323 -14 102 -52 159 -130 277 -378 67 -140 82 -162 142 -222 115 -112
262 -172 424 -172 119 1 188 26 376 137 82 49 198 109 240 125 l25 9 -7 -47
c-6 -46 -62 -183 -124 -310 -54 -110 -65 -165 -66 -323 0 -136 2 -155 40 -305
38 -155 40 -165 40 -330 0 -157 -2 -177 -28 -264 -35 -117 -31 -158 25 -273
50 -104 71 -128 115 -128 48 0 68 14 100 68 25 42 28 56 28 142 0 80 -4 103
-24 145 -77 162 -78 222 -6 685 13 85 29 207 34 270 6 63 13 138 16 165 6 71
19 107 59 173 57 95 104 216 201 527 32 99 79 240 106 313 29 77 57 176 67
233 14 82 20 99 34 99 10 0 18 -4 18 -8 0 -41 57 -303 81 -371 17 -47 41 -128
54 -179 23 -88 24 -100 15 -217 -6 -69 -15 -157 -21 -197 -32 -232 -17 -335
85 -563 95 -216 106 -450 34 -735 -32 -128 -32 -156 -2 -195 14 -18 25 -20
137 -17 110 3 129 0 197 -23 91 -32 279 -59 314 -46 64 25 44 51 -132 168
-182 122 -237 175 -251 247 -21 106 -30 265 -42 721 -11 442 -11 487 8 765 29
412 25 690 -11 899 -15 84 -25 158 -23 165 3 6 49 67 102 136 190 243 304 435
313 529 3 35 -1 58 -16 87 -25 48 -143 205 -227 299 -34 39 -107 138 -162 220
-119 177 -191 251 -294 300 -40 19 -76 40 -81 47 -17 28 -7 62 35 108 99 110
148 251 152 437 2 97 6 128 20 149 10 15 17 45 17 68 -1 23 3 59 8 82 20 89
-28 162 -143 219 -71 35 -199 66 -260 64 -18 -1 -63 -7 -101 -15z m-1741 -953
c-47 -29 -82 -71 -108 -131 -13 -30 -29 -66 -35 -80 -10 -23 -11 -21 -11 20
-1 99 84 208 164 210 16 0 14 -4 -10 -19z m209 -130 c14 -5 3 -15 -55 -43 -49
-24 -104 -65 -162 -117 -48 -45 -89 -81 -92 -81 -6 0 73 147 98 183 32 46 75
67 137 66 30 0 63 -4 74 -8z m2211 -854 c49 -46 103 -102 118 -125 l28 -40
-21 -44 c-33 -64 -214 -367 -220 -368 -3 0 -28 100 -54 222 -44 199 -48 230
-43 304 5 67 11 91 33 123 32 48 24 52 159 -72z"/>
</g>
</svg>
