<?xml version="1.0" standalone="no"?>
<!DOCTYPE svg PUBLIC "-//W3C//DTD SVG 20010904//EN"
 "http://www.w3.org/TR/2001/REC-SVG-20010904/DTD/svg10.dtd">
<svg version="1.0" xmlns="http://www.w3.org/2000/svg"
 width="820.000000pt" height="878.000000pt" viewBox="0 0 820.000000 878.000000"
 preserveAspectRatio="xMidYMid meet">

<g transform="translate(0.000000,878.000000) scale(0.100000,-0.100000)"
fill="#000000" stroke="none">
<path d="M2144 8366 c-51 -16 -127 -67 -152 -104 -11 -15 -22 -43 -24 -62 -3
-19 -15 -60 -26 -91 -12 -31 -26 -96 -32 -144 -10 -80 -14 -92 -47 -128 l-35
-39 4 -112 c3 -94 7 -117 27 -153 l24 -41 -33 -206 -33 -206 -43 -20 c-40 -20
-97 -78 -122 -126 -9 -17 -23 -22 -64 -26 -68 -6 -172 -52 -206 -93 -16 -18
-73 -54 -143 -88 -180 -89 -277 -191 -387 -413 -36 -72 -49 -87 -114 -135
-280 -207 -470 -454 -604 -786 -40 -101 -44 -160 -14 -255 48 -156 190 -305
460 -486 121 -80 265 -164 391 -227 110 -56 153 -93 189 -165 34 -67 58 -80
145 -80 55 0 63 -2 59 -17 -2 -10 -18 -173 -36 -363 -25 -271 -32 -398 -32
-590 -1 -234 0 -248 23 -310 47 -128 121 -260 231 -410 38 -52 51 -83 69 -155
12 -49 38 -119 56 -153 l34 -64 -15 -66 c-8 -37 -17 -114 -21 -172 -11 -200
40 -351 178 -525 154 -193 301 -450 335 -583 19 -78 7 -149 -37 -216 -42 -62
-169 -155 -306 -222 -127 -62 -142 -83 -77 -110 29 -12 83 -14 299 -12 250 3
265 4 292 24 26 20 28 27 28 87 0 36 5 71 10 76 6 6 39 15 73 19 85 12 97 26
97 110 0 70 -6 85 -64 178 -39 62 -73 211 -74 329 -1 75 1 85 38 154 40 74 40
76 40 185 0 170 -29 251 -171 477 -106 169 -154 272 -154 329 0 59 23 137 67
224 19 37 43 102 53 143 25 94 49 329 52 500 2 73 6 133 10 133 14 0 103 -111
200 -250 144 -206 228 -310 300 -369 101 -82 245 -150 353 -166 52 -8 144 -73
240 -169 l61 -61 21 -167 c17 -138 26 -178 51 -232 38 -80 93 -141 191 -210
194 -136 317 -306 398 -549 25 -76 27 -99 32 -296 l6 -214 27 -20 c18 -13 50
-22 99 -26 83 -8 104 -25 134 -108 10 -26 25 -56 34 -65 37 -40 311 -49 436
-15 83 23 170 75 153 92 -3 3 -47 26 -98 51 -180 87 -335 201 -407 297 -95
128 -128 233 -173 547 -101 707 -204 960 -465 1135 -112 76 -125 89 -196 197
-87 134 -156 280 -179 379 -10 46 -29 127 -41 179 -41 184 -150 397 -332 649
-45 62 -96 133 -113 156 -28 39 -47 97 -69 212 -6 31 -5 31 50 48 75 21 158
61 190 91 14 13 29 24 32 24 16 0 284 -212 391 -310 123 -112 278 -283 343
-379 20 -30 42 -51 53 -51 30 0 185 77 245 122 31 23 110 93 176 155 214 200
326 277 488 333 166 58 251 72 497 77 233 5 357 -5 545 -44 118 -24 486 -25
572 -1 131 36 183 70 429 276 105 89 205 151 245 153 13 1 101 -31 194 -71
306 -131 589 -239 596 -226 10 17 29 149 29 198 -1 115 -49 256 -131 378 -275
410 -1040 769 -1994 935 -166 28 -332 80 -476 147 -196 92 -342 187 -739 483
-469 349 -601 427 -860 504 -161 49 -231 58 -495 66 -110 3 -230 10 -267 14
-62 8 -73 13 -120 57 -29 26 -80 59 -112 74 l-59 27 -37 159 -36 159 18 60
c25 79 35 220 18 269 -9 28 -21 42 -47 52 -18 8 -38 12 -42 9 -12 -7 -21 20
-21 62 0 54 -27 146 -69 238 l-39 82 -48 11 c-54 12 -300 42 -336 41 -13 0
-41 -6 -64 -13z m-884 -3038 c11 -30 35 -69 53 -86 33 -32 33 -33 25 -90 -5
-31 -11 -135 -12 -231 l-3 -175 -27 -23 c-21 -18 -39 -23 -79 -23 l-52 0 -69
138 c-90 181 -147 272 -201 320 l-45 39 102 33 c87 27 108 39 153 81 28 26 67
75 86 107 l34 60 7 -48 c4 -27 17 -72 28 -102z"/>
</g>
</svg>
