<?xml version="1.0" standalone="no"?>
<!DOCTYPE svg PUBLIC "-//W3C//DTD SVG 20010904//EN"
 "http://www.w3.org/TR/2001/REC-SVG-20010904/DTD/svg10.dtd">
<svg version="1.0" xmlns="http://www.w3.org/2000/svg"
 width="446.000000pt" height="299.000000pt" viewBox="0 0 446.000000 299.000000"
 preserveAspectRatio="xMidYMid meet">

<g transform="translate(0.000000,299.000000) scale(0.100000,-0.100000)"
fill="#000000" stroke="none">
<path d="M2493 2961 c-11 -11 -26 -44 -33 -73 -6 -29 -15 -62 -20 -73 -17 -41
-18 -54 -8 -94 16 -62 -4 -152 -43 -191 -17 -16 -37 -30 -44 -30 -19 0 -65
-22 -65 -31 0 -4 -10 -9 -23 -13 -42 -10 -105 -64 -133 -113 -16 -26 -65 -84
-110 -128 -45 -44 -91 -99 -103 -122 -23 -45 -30 -49 -62 -33 -25 14 -24 25 6
64 37 49 56 103 60 170 1 34 5 68 8 76 36 104 -14 167 -139 178 -72 6 -146
-18 -312 -100 l-143 -71 -110 -7 c-76 -5 -115 -12 -125 -22 -13 -13 -8 -14 43
-10 53 4 56 3 39 -11 -18 -13 -15 -14 35 -11 30 1 44 0 32 -2 -13 -3 -23 -10
-23 -15 0 -5 10 -9 23 -10 12 0 30 -4 40 -7 10 -4 -22 -7 -72 -7 -73 0 -92 -3
-110 -19 -12 -11 -21 -25 -21 -33 0 -9 6 -7 20 7 11 11 29 20 39 20 28 0 151
-40 151 -49 0 -17 -38 -41 -66 -41 -17 0 -67 9 -111 21 -66 16 -89 18 -120 10
-72 -20 -101 -65 -90 -142 5 -36 1 -45 -30 -80 -19 -21 -49 -43 -67 -48 l-31
-9 30 -1 c17 0 49 8 73 19 l42 19 -17 -32 -16 -32 42 38 c44 40 66 45 97 23
18 -14 18 -15 -11 -21 -56 -12 -75 -24 -91 -59 -13 -25 -14 -38 -6 -52 10 -17
11 -15 12 13 0 69 67 80 200 33 59 -21 103 -30 147 -30 35 0 63 -2 63 -5 0
-18 -66 -132 -96 -165 -73 -81 -152 -111 -379 -145 -228 -34 -246 -41 -385
-139 -44 -32 -150 -66 -204 -66 l-41 0 55 -31 c30 -16 91 -65 135 -109 108
-107 127 -114 315 -105 141 6 146 6 180 -17 25 -17 50 -52 86 -121 61 -118 91
-151 161 -177 81 -30 130 -26 210 16 98 53 141 74 149 74 12 0 -4 -55 -37
-125 -43 -92 -49 -174 -20 -302 25 -112 26 -138 5 -228 -16 -69 -16 -71 6
-122 25 -59 51 -74 81 -48 31 29 34 79 8 155 l-23 68 18 134 c10 73 22 170 26
215 6 58 15 94 33 125 27 45 157 423 157 454 0 11 4 25 9 33 6 10 13 -4 21
-45 6 -32 23 -96 36 -141 25 -79 25 -85 14 -194 -14 -132 -11 -161 32 -266 37
-91 43 -188 19 -310 -18 -91 -9 -107 53 -98 23 4 54 1 71 -5 37 -15 135 -29
153 -23 23 9 12 22 -60 71 -114 77 -109 67 -120 254 -5 90 -6 308 -2 485 5
235 3 339 -6 386 l-12 64 66 89 c36 49 78 115 93 146 l28 56 32 -35 c22 -24
38 -33 49 -29 15 6 16 -1 10 -56 -12 -120 -19 -315 -12 -351 4 -20 26 -66 50
-101 23 -35 49 -85 56 -110 7 -26 16 -48 19 -51 4 -2 3 -30 -2 -62 -13 -76 1
-125 57 -200 91 -122 122 -194 105 -243 -12 -32 -61 -73 -115 -96 -57 -24 -28
-35 82 -32 l99 3 5 30 c4 21 12 31 27 33 32 5 37 35 13 82 -31 60 -37 131 -15
176 12 26 15 48 11 79 -7 42 -15 60 -74 165 -37 64 -39 96 -12 150 13 25 24
77 31 142 5 56 12 104 14 106 2 2 35 -39 73 -91 39 -52 83 -103 99 -114 36
-25 79 -43 101 -43 9 0 36 -17 60 -38 36 -32 43 -44 48 -87 9 -78 21 -100 94
-165 90 -79 121 -142 129 -260 6 -81 7 -85 31 -88 28 -4 60 -29 60 -47 0 -7 7
-16 16 -19 30 -11 115 -6 152 10 l37 15 -30 16 c-148 76 -178 122 -205 313
-28 194 -65 282 -142 337 -72 52 -109 120 -149 276 -12 50 -71 156 -121 218
-37 46 -49 106 -22 115 11 3 31 12 46 20 14 8 29 14 32 14 19 0 173 -144 233
-219 19 -23 20 -23 54 -7 19 9 68 46 109 82 147 130 256 156 488 118 107 -17
185 -13 235 13 18 9 61 40 97 69 35 30 73 54 85 54 11 0 69 -20 129 -45 59
-25 110 -45 112 -45 2 0 4 35 4 77 0 67 -3 82 -27 115 -84 123 -330 237 -633
294 -146 27 -218 64 -425 218 -190 142 -261 171 -432 179 -92 5 -105 8 -145
35 -37 26 -45 37 -54 80 -5 27 -7 58 -3 68 16 40 10 93 -11 104 -11 6 -20 20
-20 31 0 26 -28 91 -43 101 -7 4 -44 8 -83 8 -56 0 -74 -4 -91 -19z m-1531
-834 c-11 -12 -28 -38 -37 -57 l-16 -35 5 35 c4 20 17 45 32 58 33 29 44 29
16 -1z m98 -47 c0 -5 -4 -10 -10 -10 -5 0 -34 -20 -63 -44 l-55 -44 25 44 c14
24 32 48 41 54 22 12 62 13 62 0z m1197 -127 c15 -5 3 -157 -14 -170 -24 -19
-38 -6 -73 63 -18 35 -39 69 -47 75 -20 17 -16 26 16 32 17 4 41 21 57 41 l28
35 13 -37 c7 -20 16 -38 20 -39z m-233 -387 c-27 -47 -52 -86 -55 -86 -9 0
-42 170 -41 212 0 21 6 47 13 59 11 21 13 20 72 -39 l60 -60 -49 -86z"/>
</g>
</svg>
