<?xml version="1.0" standalone="no"?>
<!DOCTYPE svg PUBLIC "-//W3C//DTD SVG 20010904//EN"
 "http://www.w3.org/TR/2001/REC-SVG-20010904/DTD/svg10.dtd">
<svg version="1.0" xmlns="http://www.w3.org/2000/svg"
 width="665.000000pt" height="503.000000pt" viewBox="0 0 665.000000 503.000000"
 preserveAspectRatio="xMidYMid meet">

<g transform="translate(0.000000,503.000000) scale(0.100000,-0.100000)"
fill="#000000" stroke="none">
<path d="M0 2515 l0 -2515 3325 0 3325 0 0 2515 0 2515 -3325 0 -3325 0 0
-2515z m3651 1886 c-13 -3 -28 -17 -33 -30 -6 -19 -5 -22 7 -17 9 3 15 0 15
-9 0 -8 7 -15 15 -15 8 0 15 -5 15 -10 0 -13 -47 -3 -77 16 -26 16 -41 1 -23
-21 8 -9 8 -15 2 -15 -6 0 -12 5 -14 10 -2 6 -28 -11 -58 -37 -47 -41 -42 -34
30 44 72 79 90 93 115 92 28 -1 28 -2 6 -8z m69 -11 c18 -12 2 -12 -25 0 -13
6 -15 9 -5 9 8 0 22 -4 30 -9z m-9 -58 c-5 -10 -18 -25 -27 -33 -16 -12 -17
-12 -9 1 11 17 38 50 43 50 1 0 -2 -8 -7 -18z m-71 -42 c22 -7 23 -8 4 -9 -29
-1 -51 -29 -62 -79 -6 -25 -25 -59 -46 -82 -31 -34 -36 -47 -36 -88 0 -26 -7
-69 -15 -97 -9 -30 -13 -62 -9 -80 7 -29 8 -29 13 -6 l6 24 12 -26 c10 -21 10
-26 0 -24 -20 4 -19 -40 2 -82 12 -22 21 -48 20 -58 0 -13 -3 -11 -10 7 -6 14
-23 37 -38 51 -27 24 -29 30 -25 95 2 38 12 90 21 116 15 39 16 52 6 68 -17
25 -5 55 40 101 31 32 69 122 70 167 0 13 10 14 47 2z m-199 -114 c6 3 -2 -12
-18 -34 -15 -22 -29 -39 -31 -37 -2 1 5 22 14 46 10 23 20 37 22 31 2 -7 8 -9
13 -6z m-61 -146 c-17 -32 -22 -19 -7 19 7 20 13 27 15 18 2 -9 -2 -26 -8 -37z
m253 -88 c31 -34 32 -75 3 -109 -14 -17 -30 -41 -35 -54 l-10 -24 0 24 c-1 13
9 31 24 43 18 14 25 29 25 53 0 38 -20 61 -38 43 -9 -9 -12 -8 -12 4 0 31 -20
29 -57 -7 -40 -39 -49 -40 -32 -2 21 46 101 63 132 29z m-286 -69 c-3 -10 -5
-4 -5 12 0 17 2 24 5 18 2 -7 2 -21 0 -30z m81 -38 c-6 -14 -13 -23 -15 -21
-5 5 15 46 22 46 3 0 -1 -11 -7 -25z m-107 -81 c1 -61 18 -179 34 -238 5 -16
4 -18 -4 -7 -8 12 -11 10 -16 -12 -4 -15 -5 -33 -2 -41 4 -10 1 -13 -9 -9 -19
7 -19 -31 1 -47 12 -10 15 -9 15 8 0 15 6 20 25 18 27 -1 32 -15 13 -35 -21
-20 38 -63 77 -56 32 6 42 13 47 34 2 7 13 25 25 39 13 13 21 28 18 31 -5 9 4
21 34 46 l24 20 -12 -22 c-6 -13 -9 -23 -6 -23 19 0 44 23 55 50 7 17 15 29
17 26 2 -2 -2 -17 -11 -34 -8 -16 -13 -38 -10 -50 4 -14 0 -22 -15 -27 -37
-11 -19 -62 19 -52 16 4 19 3 10 -7 -7 -10 -4 -47 10 -132 40 -231 35 -403
-17 -511 -19 -40 -143 -177 -177 -195 -18 -10 -18 -8 4 28 61 101 110 207 110
239 0 65 -56 80 -170 44 -36 -11 -90 -22 -120 -24 -55 -3 -55 -3 -88 -56 -53
-87 -92 -207 -107 -332 -10 -79 -61 -111 -106 -66 -28 28 -21 82 21 182 17 40
40 124 51 187 11 63 23 118 27 122 15 15 72 21 72 8 0 -8 8 -10 22 -7 12 4 27
2 34 -4 9 -7 16 9 30 63 10 40 18 78 19 83 0 6 18 39 40 74 l39 63 9 -28 c5
-16 21 -41 35 -57 22 -23 31 -26 61 -21 70 11 119 99 108 192 -5 50 -39 92
-74 92 -13 0 -39 -15 -59 -33 -29 -26 -37 -42 -41 -79 -3 -26 -11 -49 -19 -52
-10 -4 -10 1 -2 25 5 16 7 40 4 54 -6 24 -82 105 -98 105 -24 0 -72 -146 -87
-269 -6 -46 -17 -81 -33 -105 l-25 -36 -22 31 c-26 35 -92 68 -135 69 -40 0
-90 -54 -109 -117 -8 -28 -21 -95 -28 -149 l-12 -99 -25 54 c-52 113 -39 239
42 406 52 108 318 509 410 618 36 43 66 83 66 89 0 6 2 9 5 6 3 -2 5 -36 6
-74z m338 -78 c11 -25 20 -60 19 -78 l-1 -33 -4 31 c-5 38 -40 75 -52 56 -6
-10 -10 -10 -20 2 -6 8 -23 17 -36 20 l-24 6 20 35 c20 34 22 34 49 20 16 -8
36 -34 49 -59z m-243 -35 c11 -53 24 -70 56 -80 18 -5 25 -10 15 -10 -40 -2
-68 28 -97 103 -7 20 -6 24 6 19 8 -3 17 -17 20 -32z m124 -60 c0 -5 -7 -12
-16 -15 -14 -5 -15 -4 -4 9 14 17 20 19 20 6z m165 -148 c3 -14 2 -29 -2 -34
-4 -4 -9 6 -9 24 -1 17 -6 33 -13 35 -6 2 -11 8 -11 14 0 19 28 -12 35 -39z
m-2416 -1676 c34 -17 61 -56 68 -100 6 -37 5 -37 -30 -37 -30 0 -36 4 -42 27
-11 44 -24 53 -76 53 -53 0 -89 -24 -89 -58 0 -28 28 -47 100 -66 125 -34 150
-57 150 -134 0 -49 -32 -100 -75 -118 -51 -21 -143 -18 -182 6 -40 24 -65 71
-61 113 3 28 7 32 33 32 25 0 31 -5 35 -27 9 -47 35 -68 84 -68 56 0 98 31 94
69 -3 28 -13 32 -139 66 -78 21 -109 52 -109 110 0 95 54 145 155 145 33 0 71
-6 84 -13z m229 -161 c3 -200 5 -206 87 -206 85 0 89 10 95 209 l5 166 30 0
30 0 3 -168 c3 -191 -5 -221 -66 -259 -76 -47 -208 -20 -242 49 -15 30 -27
313 -16 359 6 21 12 25 39 22 l32 -3 3 -169z m618 143 c34 -35 38 -96 8 -136
-11 -15 -64 -53 -117 -83 l-97 -55 0 -72 c0 -69 -1 -73 -25 -79 -52 -13 -55 0
-55 231 0 116 3 215 8 219 4 4 62 6 129 4 117 -3 124 -4 149 -29z m399 -9 l0
-35 -112 -3 -113 -3 0 -49 0 -50 100 0 100 0 0 -35 0 -35 -100 0 -100 0 0 -65
0 -64 118 -3 117 -3 3 -29 c2 -16 -2 -32 -10 -37 -15 -10 -268 -12 -292 -3
-14 5 -16 35 -16 223 0 120 3 221 7 225 4 3 72 5 152 4 l146 -3 0 -35z m345
25 c36 -19 50 -43 50 -90 0 -25 -8 -43 -25 -61 l-26 -26 47 -123 c25 -68 43
-128 39 -134 -7 -12 -45 -14 -61 -3 -6 4 -28 53 -49 110 -21 57 -43 105 -47
108 -5 3 -33 -9 -63 -26 l-55 -31 0 -79 c0 -84 -6 -96 -46 -86 l-24 6 0 219
c0 120 3 221 7 224 14 14 223 7 253 -8z m220 -97 l5 -106 87 36 87 37 3 70 3
70 30 0 30 0 3 -219 c1 -129 -2 -224 -7 -229 -5 -5 -21 -7 -35 -3 -26 6 -26 7
-26 116 0 61 -3 110 -6 110 -3 0 -43 -16 -89 -36 l-84 -36 -3 -77 -3 -76 -30
0 -30 0 -3 215 c-1 118 0 221 3 228 3 8 16 12 32 10 l28 -3 5 -107z m645 72
l0 -35 -117 -3 -118 -3 0 -49 0 -49 103 -3 102 -3 3 -32 3 -32 -103 -3 -103
-3 -3 -62 -3 -63 121 0 121 0 -3 -37 -3 -38 -150 0 -150 0 -3 215 c-1 118 0
220 3 228 3 10 38 12 152 10 l148 -3 0 -35z m366 2 c36 -40 38 -80 4 -120 -14
-17 -25 -34 -25 -39 0 -5 20 -62 45 -128 48 -125 47 -135 -3 -135 -25 0 -34
16 -87 158 -15 39 -29 72 -31 72 -2 0 -28 -12 -58 -27 l-55 -27 -3 -85 -3 -86
-30 0 -30 0 -3 215 c-1 118 0 221 3 228 4 11 31 13 126 10 l121 -3 29 -33z
m429 4 c63 -42 83 -94 78 -210 -4 -114 -25 -153 -106 -193 -96 -47 -206 -17
-258 73 -24 41 -26 51 -22 147 3 96 5 106 32 141 61 81 189 100 276 42z m465
-6 l0 -35 -117 -3 -118 -3 0 -49 0 -49 103 -3 102 -3 3 -32 3 -32 -103 -3
-103 -3 -3 -62 -3 -63 121 0 121 0 -3 -37 -3 -38 -150 0 -150 0 -3 215 c-1
118 0 220 3 228 3 10 38 12 152 10 l148 -3 0 -35z m320 24 c36 -17 65 -65 65
-108 0 -23 -4 -26 -34 -26 -29 0 -35 4 -41 27 -11 44 -24 53 -76 53 -53 0 -89
-24 -89 -58 0 -30 29 -47 118 -72 104 -29 132 -54 132 -120 0 -53 -29 -107
-70 -127 -34 -17 -133 -16 -175 1 -44 19 -76 70 -73 116 3 32 6 35 33 35 24 0
31 -5 33 -25 6 -44 40 -70 92 -70 57 0 93 28 88 68 -3 28 -13 33 -136 68 -82
23 -112 52 -112 111 0 92 55 143 153 143 33 0 74 -7 92 -16z m-3820 -651 c64
-78 80 -93 89 -81 123 162 139 179 170 176 l31 -3 3 -222 2 -223 -35 0 -34 0
-3 157 -3 158 -63 -78 c-38 -46 -71 -77 -82 -77 -11 0 -42 30 -77 75 -32 41
-61 74 -65 75 -5 0 -8 -70 -8 -155 l0 -155 -35 0 -35 0 0 218 c0 120 3 222 7
225 3 4 19 7 34 7 22 0 41 -17 104 -97z m453 -77 c3 -199 6 -206 84 -206 39 0
54 5 73 25 25 24 25 27 25 190 l0 166 33 -3 32 -3 3 -170 c2 -190 -4 -215 -70
-255 -42 -26 -147 -28 -188 -4 -56 34 -65 63 -68 242 -2 90 -1 170 2 178 4 10
16 14 38 12 l33 -3 3 -169z m410 -18 l2 -187 103 -3 102 -3 0 -30 0 -30 -142
-3 -143 -3 0 219 c0 120 3 222 7 226 4 4 21 6 38 4 l30 -3 3 -187z m592 157
l0 -35 -65 0 -65 0 0 -190 0 -190 -35 0 -35 0 -2 188 -3 187 -65 5 c-52 4 -65
9 -68 23 -9 45 -2 47 173 47 l165 0 0 -35z m130 -190 l0 -225 -35 0 -35 0 0
218 c0 120 3 222 7 225 3 4 19 7 35 7 l28 0 0 -225z m144 193 c7 -18 35 -96
61 -172 l49 -140 43 130 c73 221 70 214 109 214 29 0 34 -3 33 -22 0 -13 -33
-113 -73 -223 l-72 -200 -40 -3 -40 -3 -44 128 c-24 70 -58 168 -77 216 -18
49 -31 93 -27 98 3 5 19 9 35 9 25 0 32 -6 43 -32z m666 -3 l0 -35 -115 0
-115 0 0 -55 0 -55 100 0 100 0 0 -35 0 -35 -100 0 -100 0 0 -65 0 -65 120 0
120 0 0 -35 0 -36 -157 3 -158 3 -3 210 c-1 115 0 215 2 222 4 10 43 13 156
13 l150 0 0 -35z m361 6 c39 -39 41 -100 4 -137 l-24 -24 44 -121 c25 -66 45
-125 45 -130 0 -6 -17 -9 -37 -7 l-37 3 -40 105 c-22 58 -41 107 -43 109 -2 3
-28 -7 -58 -22 l-54 -26 -3 -83 -3 -83 -37 -3 -38 -3 0 219 c0 120 3 222 7
225 3 4 60 7 125 7 119 0 120 0 149 -29z m377 9 c35 -22 52 -54 52 -101 0 -28
-2 -30 -32 -27 -26 2 -33 8 -40 35 -9 37 -32 46 -93 41 -27 -2 -44 -11 -58
-29 -28 -39 -11 -64 60 -84 153 -42 177 -60 177 -133 0 -91 -58 -142 -162
-142 -87 0 -153 54 -156 127 -1 35 1 38 28 41 31 4 46 -10 46 -45 0 -35 42
-57 95 -51 55 7 75 22 75 58 0 37 -12 45 -103 68 -43 11 -89 28 -103 37 -65
43 -51 169 25 210 40 22 149 19 189 -5z m450 -17 l3 -32 -118 -3 -118 -3 0
-50 0 -50 103 -3 102 -3 0 -34 0 -34 -102 -3 -103 -3 -3 -62 -3 -62 123 -3
123 -3 0 -30 0 -30 -157 -3 -158 -3 0 219 c0 120 3 222 7 226 4 3 72 5 152 4
l146 -3 3 -32z"/>
<path d="M3549 3424 c-11 -14 -10 -18 6 -30 22 -16 39 -19 30 -4 -3 5 -1 19 5
30 9 17 8 20 -8 20 -11 0 -26 -7 -33 -16z"/>
<path d="M1930 1619 l0 -71 58 32 c75 42 93 60 90 84 -3 19 -11 21 -75 24
l-73 3 0 -72z"/>
<path d="M2690 1630 c0 -33 2 -60 5 -60 12 0 121 59 144 77 38 31 19 43 -70
43 l-79 0 0 -60z"/>
<path d="M3900 1630 c0 -33 3 -60 6 -60 10 0 117 61 137 78 36 32 21 42 -63
42 l-80 0 0 -60z"/>
<path d="M4342 1666 c-36 -33 -37 -36 -40 -113 -3 -90 7 -116 57 -150 42 -28
86 -29 129 -3 41 25 62 73 62 140 0 100 -48 160 -126 160 -36 0 -51 -6 -82
-34z"/>
<path d="M4060 1064 l0 -66 68 37 c89 49 99 59 82 79 -9 12 -31 16 -81 16
l-69 0 0 -66z"/>
</g>
</svg>
